# xmcd
#
# Track frame offsets: 
#        150
#        24819
#        45672
#        63252
#        88197
#        108963
#        125957
#        143119
#        159402
#        179281
#        204961
#        225875
#        248678
#
# Disc length: 3574 seconds
#
# Revision: 0
# Processed by: cddbd v1.5.2PL0 Copyright (c) Steve Scherf et al.
# Submitted via: ExactAudioCopy v0.99pb3
#
DISCID=9f0df40d
DTITLE=Gary Pickford-Hopkins - GPH
DYEAR=2003
DGENRE=Blues
TTITLE0=Outlaw Blues
TTITLE1=Faraway Friends
TTITLE2=Across The Muddy River
TTITLE3=Long Time Coming
TTITLE4=Loving You Means Leaving You Duet With Bonnie Tyler
TTITLE5=You're Gonna Get It
TTITLE6=Drifting Away
TTITLE7=U.B Love
TTITLE8=Take It And Shake It
TTITLE9=Sinner Man
TTITLE10=Holocaust
TTITLE11=Why (Extended Single Version)
TTITLE12=Why (Narration)
EXTD=
EXTT0=
EXTT1=
EXTT2=
EXTT3=
EXTT4=
EXTT5=
EXTT6=
EXTT7=
EXTT8=
EXTT9=
EXTT10=
EXTT11=
EXTT12=
PLAYORDER=
